<svg width="25" height="23" viewBox="0 0 25 23" fill="none" xmlns="http://www.w3.org/2000/svg">
<path d="M12.302 22.3541L17.4208 8.94163H19.7398L25 22.3541H22.5396L21.3801 18.8333H15.9502L14.621 22.3541H12.302ZM16.5724 16.8773H20.5882L18.6086 11.4565H18.552L16.5724 16.8773ZM3.39366 19.001L1.83824 17.4641L7.60747 11.7638C6.89102 10.9442 6.25471 10.1199 5.69853 9.29091C5.14234 8.46195 4.65686 7.60038 4.24208 6.70622H6.70249C7.023 7.32096 7.37651 7.90309 7.76301 8.45263C8.14951 9.00217 8.58786 9.56568 9.07805 10.1432C9.92647 9.26762 10.6335 8.35949 11.1991 7.41876C11.7647 6.47802 12.2455 5.49537 12.6414 4.47081H0V2.23541H7.91855V0H10.181V2.23541H18.0995V4.47081H14.9038C14.4891 5.75617 13.9376 7.01824 13.2494 8.25703C12.5613 9.49582 11.7176 10.6741 10.7183 11.7918L13.4898 14.5581L12.6414 16.8214L9.04977 13.4124L3.39366 19.001Z" fill="#1761EF"/>
</svg>
