<svg width="190" height="80" viewBox="0 0 190 80" fill="none" xmlns="http://www.w3.org/2000/svg">
<g filter="url(#filter0_d_59_666)">
<path d="M10.4399 32.832C11.9692 32.832 13.2712 33.39 14.3459 34.506C15.4619 35.5807 16.0199 36.8827 16.0199 38.412C16.0199 39.9827 15.4619 41.326 14.3459 42.442C13.2712 43.5167 11.9692 44.054 10.4399 44.054C8.86918 44.054 7.52585 43.5167 6.40985 42.442C5.33518 41.326 4.79785 39.9827 4.79785 38.412C4.79785 36.8827 5.33518 35.5807 6.40985 34.506C7.52585 33.39 8.86918 32.832 10.4399 32.832Z" fill="#191E9C"/>
<path d="M44.8024 20.246C47.6544 20.7833 49.9691 21.8373 51.7464 23.408C53.5651 24.9787 54.4744 27.3347 54.4744 30.476C54.4744 35.064 52.8211 38.3087 49.5144 40.21C46.2491 42.07 41.6611 43 35.7504 43H21.9244V0.0339966H34.0764C40.1111 0.0339966 44.7197 0.901996 47.9024 2.638C51.0851 4.33266 52.6764 7.12266 52.6764 11.008C52.6764 13.5293 51.9117 15.5753 50.3824 17.146C48.8944 18.6753 47.0344 19.7087 44.8024 20.246ZM32.0924 7.226V17.208H35.8744C40.1731 17.208 42.3224 15.472 42.3224 12C42.3224 10.264 41.7437 9.04466 40.5864 8.342C39.4291 7.598 37.5897 7.226 35.0684 7.226H32.0924ZM35.8124 35.622C38.4991 35.622 40.5244 35.2293 41.8884 34.444C43.2937 33.6173 43.9964 32.1087 43.9964 29.918C43.9964 25.95 41.5164 23.966 36.5564 23.966H32.0924V35.622H35.8124Z" fill="#191E9C"/>
<path d="M77.8603 9.148C79.0589 9.148 80.1543 9.29266 81.1463 9.582L79.5963 19.068C78.3563 18.7787 77.3643 18.634 76.6203 18.634C74.6776 18.634 73.1896 19.316 72.1562 20.68C71.1642 22.0027 70.3789 24.0073 69.8003 26.694V43H60.0043V10.078H68.5603L69.3662 16.464C70.1102 14.1907 71.2263 12.4133 72.7143 11.132C74.2436 9.80933 75.9589 9.148 77.8603 9.148Z" fill="#191E9C"/>
<path d="M107.705 43L105.473 33.762H92.9488L90.7788 43H80.2388L93.1968 0.0339966H105.535L118.493 43H107.705ZM94.6848 26.384H103.737L99.2108 7.412L94.6848 26.384Z" fill="#191E9C"/>
<path d="M149.793 10.078L139.439 43H127.845L117.243 10.078H127.907L133.735 35.56L139.811 10.078H149.793Z" fill="#191E9C"/>
<path d="M167.022 9.024C172.064 9.024 176.012 10.574 178.864 13.674C181.716 16.7327 183.142 21.0313 183.142 26.57C183.142 30.0833 182.48 33.1627 181.158 35.808C179.876 38.412 178.016 40.4373 175.578 41.884C173.18 43.3307 170.328 44.054 167.022 44.054C162.02 44.054 158.073 42.5247 155.18 39.466C152.328 36.366 150.902 32.0467 150.902 26.508C150.902 22.9947 151.542 19.936 152.824 17.332C154.146 14.6867 156.006 12.6407 158.404 11.194C160.842 9.74733 163.715 9.024 167.022 9.024ZM167.022 16.216C165.038 16.216 163.55 17.0633 162.558 18.758C161.566 20.4113 161.07 22.9947 161.07 26.508C161.07 30.104 161.545 32.7287 162.496 34.382C163.488 36.0353 164.996 36.862 167.022 36.862C169.006 36.862 170.494 36.0353 171.486 34.382C172.478 32.6873 172.974 30.0833 172.974 26.57C172.974 22.974 172.478 20.3493 171.486 18.696C170.535 17.0427 169.047 16.216 167.022 16.216Z" fill="#191E9C"/>
<path d="M6.19995 68V59.732H10.5919L10.4599 60.644H7.33995V63.464H10.0399V64.364H7.33995V68H6.19995Z" fill="black"/>
<path d="M14.3606 61.532C14.5846 61.532 14.7926 61.556 14.9846 61.604L14.7806 62.684C14.5886 62.636 14.4046 62.612 14.2286 62.612C13.8366 62.612 13.5206 62.756 13.2806 63.044C13.0406 63.332 12.8526 63.78 12.7166 64.388V68H11.6126V61.676H12.5606L12.6686 62.96C12.8366 62.488 13.0646 62.132 13.3526 61.892C13.6406 61.652 13.9766 61.532 14.3606 61.532Z" fill="black"/>
<path d="M18.2542 61.532C19.1422 61.532 19.8302 61.828 20.3182 62.42C20.8142 63.012 21.0622 63.816 21.0622 64.832C21.0622 65.488 20.9502 66.068 20.7262 66.572C20.5022 67.068 20.1782 67.456 19.7542 67.736C19.3302 68.008 18.8262 68.144 18.2422 68.144C17.3542 68.144 16.6622 67.848 16.1662 67.256C15.6702 66.664 15.4222 65.86 15.4222 64.844C15.4222 64.188 15.5342 63.612 15.7582 63.116C15.9822 62.612 16.3062 62.224 16.7302 61.952C17.1542 61.672 17.6622 61.532 18.2542 61.532ZM18.2542 62.42C17.1582 62.42 16.6102 63.228 16.6102 64.844C16.6102 66.452 17.1542 67.256 18.2422 67.256C19.3302 67.256 19.8742 66.448 19.8742 64.832C19.8742 63.224 19.3342 62.42 18.2542 62.42Z" fill="black"/>
<path d="M25.862 61.532C26.438 61.532 26.886 61.704 27.206 62.048C27.534 62.392 27.698 62.864 27.698 63.464V68H26.594V63.62C26.594 63.172 26.51 62.856 26.342 62.672C26.174 62.488 25.926 62.396 25.598 62.396C25.262 62.396 24.966 62.492 24.71 62.684C24.454 62.876 24.214 63.152 23.99 63.512V68H22.886V61.676H23.834L23.93 62.612C24.154 62.276 24.43 62.012 24.758 61.82C25.094 61.628 25.462 61.532 25.862 61.532Z" fill="black"/>
<path d="M33.1093 67.712C32.6933 68 32.2213 68.144 31.6933 68.144C31.1573 68.144 30.7373 67.992 30.4333 67.688C30.1373 67.376 29.9893 66.928 29.9893 66.344V62.528H28.8853V61.676H29.9893V60.248L31.0933 60.116V61.676H32.5933L32.4733 62.528H31.0933V66.296C31.0933 66.624 31.1493 66.864 31.2613 67.016C31.3813 67.16 31.5773 67.232 31.8493 67.232C32.0973 67.232 32.3773 67.148 32.6893 66.98L33.1093 67.712Z" fill="black"/>
<path d="M41.965 59.732L41.833 60.644H38.629V63.344H41.413V64.256H38.629V67.088H42.061V68H37.489V59.732H41.965Z" fill="black"/>
<path d="M46.7097 61.532C47.2857 61.532 47.7337 61.704 48.0537 62.048C48.3817 62.392 48.5457 62.864 48.5457 63.464V68H47.4417V63.62C47.4417 63.172 47.3577 62.856 47.1897 62.672C47.0217 62.488 46.7737 62.396 46.4457 62.396C46.1097 62.396 45.8137 62.492 45.5577 62.684C45.3017 62.876 45.0617 63.152 44.8377 63.512V68H43.7337V61.676H44.6817L44.7777 62.612C45.0017 62.276 45.2777 62.012 45.6057 61.82C45.9417 61.628 46.3097 61.532 46.7097 61.532Z" fill="black"/>
<path d="M55.6609 59.132V68H54.6889L54.5809 67.124C54.3729 67.444 54.1129 67.696 53.8009 67.88C53.4889 68.056 53.1409 68.144 52.7569 68.144C52.0049 68.144 51.4169 67.848 50.9929 67.256C50.5769 66.664 50.3689 65.868 50.3689 64.868C50.3689 64.22 50.4689 63.644 50.6689 63.14C50.8689 62.636 51.1569 62.244 51.5329 61.964C51.9089 61.676 52.3489 61.532 52.8529 61.532C53.5009 61.532 54.0689 61.792 54.5569 62.312V59L55.6609 59.132ZM52.9969 67.268C53.3329 67.268 53.6209 67.192 53.8609 67.04C54.1009 66.88 54.3329 66.644 54.5569 66.332V63.236C54.3489 62.964 54.1249 62.76 53.8849 62.624C53.6529 62.48 53.3889 62.408 53.0929 62.408C52.6049 62.408 52.2249 62.612 51.9529 63.02C51.6889 63.428 51.5569 64.036 51.5569 64.844C51.5569 65.66 51.6809 66.268 51.9289 66.668C52.1769 67.068 52.5329 67.268 52.9969 67.268Z" fill="black"/>
<path d="M102.864 66.348C102.864 66.9 102.748 67.388 102.516 67.812C102.292 68.228 101.96 68.556 101.52 68.796C101.088 69.028 100.568 69.144 99.96 69.144C99.04 69.144 98.328 68.892 97.824 68.388C97.328 67.876 97.08 67.196 97.08 66.348V60.732H98.22V66.264C98.22 66.904 98.364 67.384 98.652 67.704C98.94 68.024 99.376 68.184 99.96 68.184C100.552 68.184 100.992 68.028 101.28 67.716C101.568 67.396 101.712 66.912 101.712 66.264V60.732H102.864V66.348Z" fill="black"/>
<path d="M106.285 60.732V69H105.145V60.732H106.285Z" fill="black"/>
<path d="M111.528 59.316L112.464 59.532L109.692 70.248L108.744 70.02L111.528 59.316Z" fill="black"/>
<path d="M120.583 66.348C120.583 66.9 120.467 67.388 120.235 67.812C120.011 68.228 119.679 68.556 119.239 68.796C118.807 69.028 118.287 69.144 117.679 69.144C116.759 69.144 116.047 68.892 115.543 68.388C115.047 67.876 114.799 67.196 114.799 66.348V60.732H115.939V66.264C115.939 66.904 116.083 67.384 116.371 67.704C116.659 68.024 117.095 68.184 117.679 68.184C118.271 68.184 118.711 68.028 118.999 67.716C119.287 67.396 119.431 66.912 119.431 66.264V60.732H120.583V66.348Z" fill="black"/>
<path d="M127.34 60.732L127.208 61.644H124.004V64.344H126.788V65.256H124.004V68.088H127.436V69H122.864V60.732H127.34Z" fill="black"/>
<path d="M131.986 64.536L134.506 69H133.21L131.302 65.34L129.37 69H128.146L130.63 64.596L128.362 60.732H129.658L131.326 63.84L133.006 60.732H134.23L131.986 64.536Z" fill="black"/>
<path d="M140.67 60.732C141.918 60.732 142.918 61.024 143.67 61.608C144.43 62.184 144.81 63.256 144.81 64.824C144.81 66.352 144.43 67.432 143.67 68.064C142.918 68.688 142.002 69 140.922 69H138.942V60.732H140.67ZM140.082 61.644V68.1H141.006C141.774 68.1 142.398 67.864 142.878 67.392C143.358 66.92 143.598 66.064 143.598 64.824C143.598 63.952 143.474 63.284 143.226 62.82C142.978 62.348 142.662 62.036 142.278 61.884C141.894 61.724 141.442 61.644 140.922 61.644H140.082Z" fill="black"/>
<path d="M151.381 65.652C151.381 65.836 151.373 66.024 151.357 66.216H147.325C147.373 66.912 147.549 67.424 147.853 67.752C148.157 68.08 148.549 68.244 149.029 68.244C149.333 68.244 149.613 68.2 149.869 68.112C150.125 68.024 150.393 67.884 150.673 67.692L151.153 68.352C150.481 68.88 149.745 69.144 148.945 69.144C148.065 69.144 147.377 68.856 146.881 68.28C146.393 67.704 146.149 66.912 146.149 65.904C146.149 65.248 146.253 64.668 146.461 64.164C146.677 63.652 146.981 63.252 147.373 62.964C147.773 62.676 148.241 62.532 148.777 62.532C149.617 62.532 150.261 62.808 150.709 63.36C151.157 63.912 151.381 64.676 151.381 65.652ZM150.289 65.328C150.289 64.704 150.165 64.228 149.917 63.9C149.669 63.572 149.297 63.408 148.801 63.408C147.897 63.408 147.405 64.072 147.325 65.4H150.289V65.328Z" fill="black"/>
<path d="M154.86 62.532C155.292 62.532 155.68 62.592 156.024 62.712C156.368 62.832 156.696 63.012 157.008 63.252L156.54 63.948C156.252 63.764 155.976 63.628 155.712 63.54C155.456 63.452 155.184 63.408 154.896 63.408C154.536 63.408 154.252 63.484 154.044 63.636C153.836 63.78 153.732 63.98 153.732 64.236C153.732 64.492 153.828 64.692 154.02 64.836C154.22 64.98 154.576 65.12 155.088 65.256C155.792 65.432 156.316 65.672 156.66 65.976C157.012 66.28 157.188 66.696 157.188 67.224C157.188 67.848 156.944 68.324 156.456 68.652C155.976 68.98 155.388 69.144 154.692 69.144C153.732 69.144 152.936 68.868 152.304 68.316L152.892 67.644C153.428 68.052 154.02 68.256 154.668 68.256C155.084 68.256 155.412 68.172 155.652 68.004C155.9 67.828 156.024 67.592 156.024 67.296C156.024 67.08 155.98 66.908 155.892 66.78C155.804 66.644 155.652 66.528 155.436 66.432C155.22 66.328 154.904 66.22 154.488 66.108C153.816 65.932 153.328 65.696 153.024 65.4C152.728 65.104 152.58 64.728 152.58 64.272C152.58 63.944 152.676 63.648 152.868 63.384C153.068 63.112 153.34 62.904 153.684 62.76C154.036 62.608 154.428 62.532 154.86 62.532Z" fill="black"/>
<path d="M159.849 62.676V69H158.745V62.676H159.849ZM159.285 59.64C159.517 59.64 159.705 59.712 159.849 59.856C159.993 60 160.065 60.18 160.065 60.396C160.065 60.612 159.993 60.792 159.849 60.936C159.705 61.072 159.517 61.14 159.285 61.14C159.061 61.14 158.877 61.072 158.733 60.936C158.589 60.792 158.517 60.612 158.517 60.396C158.517 60.18 158.589 60 158.733 59.856C158.877 59.712 159.061 59.64 159.285 59.64Z" fill="black"/>
<path d="M167.232 62.964C166.992 63.044 166.728 63.096 166.44 63.12C166.152 63.144 165.8 63.156 165.384 63.156C166.128 63.492 166.5 64.024 166.5 64.752C166.5 65.384 166.284 65.9 165.852 66.3C165.42 66.7 164.832 66.9 164.088 66.9C163.8 66.9 163.532 66.86 163.284 66.78C163.188 66.844 163.112 66.932 163.056 67.044C163 67.148 162.972 67.256 162.972 67.368C162.972 67.712 163.248 67.884 163.8 67.884H164.808C165.232 67.884 165.608 67.96 165.936 68.112C166.264 68.264 166.516 68.472 166.692 68.736C166.876 69 166.968 69.3 166.968 69.636C166.968 70.252 166.716 70.724 166.212 71.052C165.708 71.388 164.972 71.556 164.004 71.556C163.324 71.556 162.784 71.484 162.384 71.34C161.992 71.204 161.712 70.996 161.544 70.716C161.376 70.436 161.292 70.076 161.292 69.636H162.288C162.288 69.892 162.336 70.092 162.432 70.236C162.528 70.388 162.7 70.5 162.948 70.572C163.196 70.652 163.548 70.692 164.004 70.692C164.668 70.692 165.14 70.608 165.42 70.44C165.708 70.28 165.852 70.036 165.852 69.708C165.852 69.412 165.74 69.188 165.516 69.036C165.292 68.884 164.98 68.808 164.58 68.808H163.584C163.048 68.808 162.64 68.696 162.36 68.472C162.088 68.24 161.952 67.952 161.952 67.608C161.952 67.4 162.012 67.2 162.132 67.008C162.252 66.816 162.424 66.644 162.648 66.492C162.28 66.3 162.008 66.064 161.832 65.784C161.664 65.496 161.58 65.148 161.58 64.74C161.58 64.316 161.684 63.936 161.892 63.6C162.108 63.264 162.4 63.004 162.768 62.82C163.144 62.628 163.56 62.532 164.016 62.532C164.512 62.54 164.928 62.524 165.264 62.484C165.6 62.436 165.876 62.376 166.092 62.304C166.316 62.224 166.588 62.112 166.908 61.968L167.232 62.964ZM164.016 63.324C163.6 63.324 163.276 63.456 163.044 63.72C162.82 63.976 162.708 64.316 162.708 64.74C162.708 65.172 162.824 65.52 163.056 65.784C163.288 66.04 163.616 66.168 164.04 66.168C164.472 66.168 164.8 66.044 165.024 65.796C165.256 65.54 165.372 65.184 165.372 64.728C165.372 63.792 164.92 63.324 164.016 63.324Z" fill="black"/>
<path d="M171.343 62.532C171.919 62.532 172.367 62.704 172.687 63.048C173.015 63.392 173.179 63.864 173.179 64.464V69H172.075V64.62C172.075 64.172 171.991 63.856 171.823 63.672C171.655 63.488 171.407 63.396 171.079 63.396C170.743 63.396 170.447 63.492 170.191 63.684C169.935 63.876 169.695 64.152 169.471 64.512V69H168.367V62.676H169.315L169.411 63.612C169.635 63.276 169.911 63.012 170.239 62.82C170.575 62.628 170.943 62.532 171.343 62.532Z" fill="black"/>
<path d="M180.174 65.652C180.174 65.836 180.166 66.024 180.15 66.216H176.118C176.166 66.912 176.342 67.424 176.646 67.752C176.95 68.08 177.342 68.244 177.822 68.244C178.126 68.244 178.406 68.2 178.662 68.112C178.918 68.024 179.186 67.884 179.466 67.692L179.946 68.352C179.274 68.88 178.538 69.144 177.738 69.144C176.858 69.144 176.17 68.856 175.674 68.28C175.186 67.704 174.942 66.912 174.942 65.904C174.942 65.248 175.046 64.668 175.254 64.164C175.47 63.652 175.774 63.252 176.166 62.964C176.566 62.676 177.034 62.532 177.57 62.532C178.41 62.532 179.054 62.808 179.502 63.36C179.95 63.912 180.174 64.676 180.174 65.652ZM179.082 65.328C179.082 64.704 178.958 64.228 178.71 63.9C178.462 63.572 178.09 63.408 177.594 63.408C176.69 63.408 176.198 64.072 176.118 65.4H179.082V65.328Z" fill="black"/>
<path d="M184.685 62.532C184.909 62.532 185.117 62.556 185.309 62.604L185.105 63.684C184.913 63.636 184.729 63.612 184.553 63.612C184.161 63.612 183.845 63.756 183.605 64.044C183.365 64.332 183.177 64.78 183.041 65.388V69H181.937V62.676H182.885L182.993 63.96C183.161 63.488 183.389 63.132 183.677 62.892C183.965 62.652 184.301 62.532 184.685 62.532Z" fill="black"/>
<path d="M77.624 60.588C78.056 60.588 78.436 60.668 78.764 60.828C79.1 60.98 79.36 61.196 79.544 61.476C79.728 61.756 79.82 62.068 79.82 62.412C79.82 62.884 79.668 63.292 79.364 63.636C79.068 63.972 78.656 64.296 78.128 64.608L80.24 66.6C80.56 65.952 80.8 65.276 80.96 64.572L81.992 64.872C81.712 65.8 81.356 66.588 80.924 67.236L82.268 68.496L81.476 69.144L80.312 68.016C79.968 68.392 79.58 68.676 79.148 68.868C78.716 69.052 78.22 69.144 77.66 69.144C77.132 69.144 76.664 69.052 76.256 68.868C75.856 68.684 75.54 68.424 75.308 68.088C75.084 67.744 74.972 67.348 74.972 66.9C74.972 66.404 75.112 65.972 75.392 65.604C75.672 65.228 76.088 64.864 76.64 64.512C76.24 64.128 75.944 63.784 75.752 63.48C75.568 63.176 75.476 62.832 75.476 62.448C75.476 61.904 75.664 61.46 76.04 61.116C76.424 60.764 76.952 60.588 77.624 60.588ZM77.636 61.404C77.3 61.404 77.036 61.5 76.844 61.692C76.652 61.884 76.556 62.132 76.556 62.436C76.556 62.724 76.632 62.984 76.784 63.216C76.936 63.44 77.176 63.708 77.504 64.02C77.912 63.772 78.22 63.528 78.428 63.288C78.636 63.04 78.74 62.768 78.74 62.472C78.74 62.136 78.64 61.876 78.44 61.692C78.24 61.5 77.972 61.404 77.636 61.404ZM77.276 65.112C76.876 65.376 76.58 65.648 76.388 65.928C76.196 66.2 76.1 66.512 76.1 66.864C76.1 67.304 76.252 67.648 76.556 67.896C76.868 68.144 77.276 68.268 77.78 68.268C78.156 68.268 78.496 68.196 78.8 68.052C79.104 67.908 79.396 67.692 79.676 67.404L77.276 65.112Z" fill="black"/>
<path d="M5.02298 53.4747C5.03574 52.6603 5.70643 52.0025 6.52101 52.0055L183.611 52.6702C184.426 52.6733 185.076 53.336 185.063 54.1505C185.05 54.965 184.379 55.6228 183.565 55.6197L6.47479 54.955C5.66022 54.952 5.01022 54.2892 5.02298 53.4747Z" fill="#191E9C"/>
</g>
<defs>
<filter id="filter0_d_59_666" x="0.797852" y="0.0339966" width="188.511" height="79.522" filterUnits="userSpaceOnUse" color-interpolation-filters="sRGB">
<feFlood flood-opacity="0" result="BackgroundImageFix"/>
<feColorMatrix in="SourceAlpha" type="matrix" values="0 0 0 0 0 0 0 0 0 0 0 0 0 0 0 0 0 0 127 0" result="hardAlpha"/>
<feOffset dy="4"/>
<feGaussianBlur stdDeviation="2"/>
<feComposite in2="hardAlpha" operator="out"/>
<feColorMatrix type="matrix" values="0 0 0 0 0 0 0 0 0 0 0 0 0 0 0 0 0 0 0.25 0"/>
<feBlend mode="normal" in2="BackgroundImageFix" result="effect1_dropShadow_59_666"/>
<feBlend mode="normal" in="SourceGraphic" in2="effect1_dropShadow_59_666" result="shape"/>
</filter>
</defs>
</svg>
